<?xml version="1.0" standalone="no"?>
<!DOCTYPE svg PUBLIC "-//W3C//DTD SVG 20010904//EN"
 "http://www.w3.org/TR/2001/REC-SVG-20010904/DTD/svg10.dtd">
<svg version="1.0" xmlns="http://www.w3.org/2000/svg"
 width="256.000000pt" height="256.000000pt" viewBox="0 0 256.000000 256.000000"
 preserveAspectRatio="xMidYMid meet">
<metadata>
Created by potrace 1.14, written by Peter Selinger 2001-2017
</metadata>
<g transform="translate(0.000000,256.000000) scale(0.100000,-0.100000)"
fill="#000000" stroke="none">
<path d="M1595 2455 c-63 -46 -85 -64 -129 -110 -113 -115 -202 -301 -220
-457 -4 -36 -2 -35 -60 -42 -58 -8 -155 -46 -210 -83 -47 -30 -67 -23 -78 28
-10 45 -11 135 -2 195 l7 48 -49 -29 c-61 -35 -126 -85 -181 -141 l-42 -42
-16 48 c-9 28 -17 88 -18 139 -1 50 -4 91 -7 91 -12 0 -69 -41 -116 -83 -110
-99 -208 -253 -258 -405 -110 -328 -53 -700 151 -983 18 -25 30 -49 26 -53 -3
-3 0 -6 8 -6 15 0 45 -39 41 -53 -1 -5 2 -6 7 -3 5 4 18 -4 28 -16 10 -13 36
-39 58 -57 22 -19 39 -39 37 -44 -1 -5 2 -6 8 -2 5 3 10 2 10 -3 0 -5 9 -12
21 -15 13 -4 18 -10 13 -18 -4 -7 -3 -10 3 -6 11 7 66 -27 57 -35 -3 -3 3 -5
13 -5 10 1 17 -3 16 -10 -1 -6 5 -10 15 -8 9 1 29 -6 44 -16 14 -11 30 -19 35
-19 4 0 19 -6 33 -13 14 -8 47 -20 73 -27 26 -8 47 -17 47 -20 0 -3 11 -6 25
-6 14 -1 33 -5 43 -9 9 -4 35 -9 58 -11 55 -4 68 -7 76 -19 5 -6 8 -5 8 3 0 7
4 11 9 8 8 -5 187 -10 201 -6 11 3 37 8 80 13 25 4 59 9 75 13 17 4 40 8 53 8
12 1 22 4 22 7 0 4 21 12 46 19 25 7 75 28 110 47 36 18 70 30 77 27 7 -4 9
-4 5 1 -4 4 32 35 79 69 97 69 210 177 258 248 17 27 35 45 39 40 4 -4 7 -2 5
3 -4 14 22 65 33 65 5 0 7 4 4 9 -3 5 4 21 17 37 12 16 21 31 19 34 -3 5 29
82 38 90 3 3 6 12 6 20 1 8 9 42 19 75 9 33 19 69 22 80 13 49 12 324 -2 406
-15 91 -66 247 -94 289 -9 14 -23 38 -31 54 -20 39 -147 172 -156 163 -4 -4
-2 -17 4 -30 27 -53 93 -244 92 -267 0 -3 -15 22 -33 56 -34 63 -102 166 -136
207 -11 12 -71 83 -135 157 -117 136 -210 263 -242 333 -19 40 -29 44 -59 22z"/>
</g>
</svg>
